<svg width="9" height="10" viewBox="0 0 9 10" fill="none" xmlns="http://www.w3.org/2000/svg">
<path d="M5.75337 8.36754C5.89324 8.48145 5.9154 8.68856 5.80288 8.83015C5.71969 8.93482 5.62357 9.02854 5.5217 9.10533C5.17855 9.37459 4.74227 9.49668 4.309 9.44507C3.87535 9.39342 3.47978 9.17192 3.20983 8.82893C3.09797 8.6868 3.12111 8.4798 3.26151 8.36657C3.40191 8.25333 3.60641 8.27676 3.71827 8.41888C3.88108 8.62573 4.12102 8.76009 4.38498 8.79153C4.64932 8.82302 4.91523 8.7486 5.1283 8.58148C5.19113 8.53407 5.24759 8.47902 5.29636 8.41766C5.40889 8.27608 5.6135 8.25364 5.75337 8.36754ZM1.29395 3.32568L1.29976 3.04468C1.30391 2.92449 1.31033 2.81292 1.31976 2.70373C1.4611 1.17743 2.91793 0.0245667 4.50684 0.0245667H4.54047C6.12852 0.0245667 7.58578 1.17663 7.73194 2.70581C7.74033 2.80302 7.74393 2.88937 7.74502 3.0108L7.74544 3.38231C7.74579 3.41615 7.74636 3.44591 7.74723 3.47366L7.75159 3.56621L7.77261 3.65445C7.83896 3.90022 7.95558 4.13 8.11529 4.32947L8.18636 4.41307L8.21546 4.45042C8.40701 4.73669 8.51644 5.0698 8.53208 5.42856L8.53162 5.61876C8.51825 6.04364 8.36226 6.454 8.07643 6.79595C7.69787 7.19771 7.18488 7.44731 6.63969 7.49748C5.23179 7.65036 3.81132 7.65036 2.40733 7.49789C1.85838 7.44508 1.34692 7.19622 0.951804 6.77904C0.660442 6.42383 0.505565 5.97659 0.515227 5.52463L0.515626 5.41226C0.532459 5.06862 0.641208 4.73583 0.830476 4.44831L0.862154 4.40756C1.0832 4.16522 1.23432 3.86864 1.2999 3.54889L1.2928 3.57761L1.29395 3.32568ZM4.54047 0.68262H4.50684C3.23432 0.68262 2.07489 1.60013 1.96719 2.76307C1.96168 2.82697 1.95728 2.8929 1.95384 2.96229L1.94627 3.18224L1.94319 3.61577L1.93641 3.68265C1.84682 4.11951 1.64066 4.52411 1.33978 4.85397L1.36301 4.82704L1.32146 4.89581C1.24361 5.03607 1.19339 5.1884 1.17355 5.33872L1.16531 5.42856L1.16524 5.53169C1.15886 5.83202 1.26034 6.12507 1.43617 6.3408C1.7074 6.62631 2.07431 6.80483 2.47275 6.84319C3.83456 6.99106 5.20854 6.99106 6.57556 6.84266C6.96969 6.80636 7.33635 6.62796 7.59283 6.35665C7.78692 6.12385 7.8895 5.82986 7.882 5.52045L7.88238 5.44337C7.87243 5.22097 7.80158 5.0053 7.67723 4.81946L7.68441 4.83142L7.6194 4.75516C7.3952 4.47845 7.23233 4.15748 7.14165 3.81342L7.11105 3.68336L7.10497 3.63966C7.10038 3.57581 7.09771 3.51907 7.09629 3.45084L7.09501 3.02421C7.09413 2.91571 7.0912 2.84268 7.0846 2.76613C6.97314 1.60008 5.81263 0.68262 4.54047 0.68262Z" fill="#EA7C69"/>
</svg>
