<svg width="11" height="11" viewBox="0 0 11 11" fill="none" xmlns="http://www.w3.org/2000/svg">
<path d="M6.44361 1.05142L6.52959 1.1316L6.86855 1.47056C6.98499 1.58644 7.13771 1.65789 7.30016 1.67394L7.37031 1.6774H7.85512C8.61148 1.6774 9.22997 2.26887 9.27318 3.01442L9.27559 3.09787V3.58221C9.27559 3.74717 9.33247 3.90576 9.43509 4.03186L9.48184 4.08384L9.82083 4.42283C10.3545 4.95405 10.3783 5.80355 9.88942 6.36337L9.82564 6.4318L9.48213 6.7753C9.3666 6.89111 9.29512 7.04395 9.27905 7.20624L9.27559 7.27629V7.76157C9.27559 8.5179 8.68416 9.13598 7.93857 9.17916L7.85512 9.18157H7.37031C7.20593 9.18157 7.04714 9.2387 6.92097 9.3416L6.86897 9.38846L6.53044 9.72652C5.99979 10.2608 5.14968 10.2845 4.58964 9.79542L4.51694 9.72737L4.17875 9.38918C4.0616 9.27286 3.9086 9.20115 3.7466 9.18504L3.6767 9.18157H3.19142C2.43537 9.18157 1.81703 8.59041 1.77383 7.84501L1.77142 7.76157L1.77142 7.27629C1.77142 7.11218 1.71421 6.95323 1.61136 6.82729L1.56452 6.77543L1.22632 6.43675C0.692195 5.90564 0.668503 5.05551 1.15757 4.49602L1.22137 4.42764L1.56381 4.08473C1.68027 3.96744 1.75187 3.81473 1.76795 3.65233L1.77142 3.58221L1.77142 3.09787L1.77383 3.01443C1.81543 2.29657 2.3904 1.72143 3.10801 1.67981L3.19142 1.6774H3.6767C3.84104 1.6774 3.99987 1.62039 4.12581 1.51797L4.17769 1.47132L4.51638 1.13216C5.04758 0.598552 5.89761 0.57506 6.44361 1.05142ZM5.07143 1.5825L5.01733 1.63163L4.67718 1.97225C4.43325 2.21446 4.11061 2.35928 3.76999 2.38173L3.6767 2.38481H3.19142C2.82 2.38481 2.51453 2.66973 2.48174 3.03299L2.47882 3.09787V3.58221C2.47882 3.92609 2.35403 4.25675 2.12894 4.51522L2.06508 4.58388L1.72215 4.92729C1.46191 5.18871 1.44676 5.60168 1.67674 5.88183L1.726 5.93601L2.06521 6.27568C2.3078 6.51886 2.45319 6.84206 2.47574 7.18293L2.47882 7.27629V7.76157C2.47882 8.13321 2.76353 8.43848 3.12658 8.47125L3.19142 8.47416H3.6767C4.01993 8.47416 4.35088 8.5991 4.60941 8.82422L4.67807 8.88808L5.01919 9.2292C5.28245 9.49098 5.69553 9.50622 5.97543 9.27625L6.02955 9.22699L6.36953 8.88749C6.61321 8.64495 6.93599 8.49976 7.27692 8.47724L7.37031 8.47416H7.85512C8.22706 8.47416 8.53248 8.18959 8.56527 7.82643L8.56818 7.76157V7.27629C8.56818 6.93256 8.69306 6.60102 8.91786 6.34368L8.98162 6.27539L9.32472 5.9323C9.58496 5.67058 9.60002 5.25781 9.37037 4.97777L9.32118 4.92361L8.98074 4.58316C8.73838 4.33907 8.59368 4.01677 8.57125 3.67566L8.56818 3.58221V3.09787C8.56818 2.72605 8.28331 2.42052 7.92 2.38772L7.85512 2.38481H7.37031C7.02643 2.38481 6.69534 2.26012 6.43742 2.03518L6.36893 1.97136L6.0445 1.64606L6.0257 1.6286C5.76431 1.36839 5.35124 1.35315 5.07143 1.5825ZM6.98378 6.39278C7.01679 6.4258 7.04509 6.46353 7.06395 6.50597C7.0781 6.54841 7.08753 6.59557 7.08753 6.64274C7.08753 6.69037 7.0781 6.73234 7.06395 6.77478C7.04509 6.81723 7.01679 6.85967 6.98378 6.89269C6.91776 6.95871 6.82815 6.99644 6.73383 6.99644C6.63951 6.99644 6.5499 6.95871 6.48388 6.89269C6.45087 6.85967 6.42729 6.81723 6.40842 6.77478C6.38956 6.73234 6.38013 6.69037 6.38013 6.64274C6.38013 6.59557 6.38956 6.54841 6.40842 6.50597C6.42729 6.46353 6.45087 6.4258 6.48388 6.39278C6.61593 6.26074 6.85173 6.26074 6.98378 6.39278ZM6.98549 3.96721C7.11106 4.09279 7.12248 4.28929 7.01974 4.42775L6.98549 4.46743L4.56144 6.89147C4.42331 7.0296 4.19936 7.0296 4.06123 6.89147C3.93566 6.7659 3.92424 6.5694 4.02698 6.43093L4.06123 6.39126L6.48528 3.96721C6.62341 3.82908 6.84736 3.82908 6.98549 3.96721ZM4.55968 3.96893C4.62571 4.03448 4.66344 4.12455 4.66344 4.21888C4.66344 4.26604 4.65872 4.30801 4.63986 4.35093C4.62099 4.39337 4.5927 4.4311 4.55968 4.46883C4.52667 4.50184 4.48894 4.52495 4.4465 4.54381C4.40406 4.56268 4.35689 4.57258 4.30973 4.57258C4.26257 4.57258 4.22013 4.56268 4.17768 4.54381C4.13524 4.52495 4.0928 4.50184 4.05978 4.46883C4.02677 4.4311 4.00319 4.39337 3.98433 4.35093C3.96546 4.30801 3.95603 4.26604 3.95603 4.21888C3.95603 4.17124 3.96546 4.12455 3.98433 4.08211C4.00319 4.03967 4.02677 3.99722 4.05978 3.96893C4.19655 3.8364 4.42764 3.8364 4.55968 3.96893Z" fill="#EA7C69"/>
</svg>
