<svg width="10" height="11" viewBox="0 0 10 11" fill="none" xmlns="http://www.w3.org/2000/svg">
<path d="M3.45305 0.98162C4.05199 0.505771 4.89145 0.486906 5.50878 0.925027L5.58471 0.98162L8.45631 3.27881C8.77228 3.52357 8.96611 3.88718 8.99912 4.28285L9.00384 4.37765V8.20189C9.00384 9.18754 8.22522 9.98927 7.24947 10.0411H6.31098C5.86248 10.0322 5.49982 9.6832 5.4668 9.24461L5.46209 9.17811V7.82979C5.46209 7.68312 5.35315 7.56098 5.20742 7.53693L5.16498 7.53221H3.90532C3.75488 7.53692 3.63226 7.64539 3.6134 7.78688L3.60868 7.82979V9.17387C3.60868 9.20169 3.60349 9.2347 3.59925 9.25828L3.59453 9.26819L3.58935 9.30073C3.53323 9.70206 3.2031 10.0081 2.79281 10.0369L2.7315 10.0411H1.88732C0.901671 10.0411 0.0952267 9.26819 0.0433502 8.29621L0.0433502 4.37765C0.0475947 3.97631 0.22256 3.60374 0.514955 3.34436L3.45305 0.98162ZM5.17441 1.49567C4.81599 1.20799 4.30666 1.19431 3.92937 1.44379L3.85816 1.49567L0.990804 3.807C0.826214 3.92915 0.727177 4.11308 0.703597 4.30643L0.698409 4.38189L0.698409 8.20189C0.698409 8.82912 1.18888 9.34317 1.81187 9.3809H2.7315C2.83525 9.3809 2.92485 9.31063 2.93853 9.21159L2.94844 9.1267L2.95315 9.10265V7.82979C2.95315 7.32517 3.33987 6.91488 3.83505 6.87668H5.16498C5.66912 6.87668 6.07942 7.26387 6.11762 7.75905V9.17811C6.11762 9.27715 6.18836 9.36251 6.28268 9.3809H7.15939C7.79134 9.3809 8.30539 8.89562 8.34312 8.27735L8.34831 8.20189V4.38189C8.34312 4.17957 8.2587 3.99046 8.11251 3.84945L8.0512 3.7971L5.17441 1.49567Z" fill="#EA7C69"/>
</svg>
