<svg width="11" height="10" viewBox="0 0 11 10" fill="none" xmlns="http://www.w3.org/2000/svg">
<path d="M5.20796 0.0889587C6.33002 0.0889587 7.24584 0.972715 7.29725 2.08207L7.29953 2.18053V2.62053C7.29953 2.81588 7.14117 2.97424 6.94583 2.97424C6.76676 2.97424 6.61877 2.84117 6.59535 2.66853L6.59212 2.62053V2.18053C6.59212 1.44345 6.01581 0.840821 5.28929 0.798716L5.20796 0.796366L2.90889 0.796366C2.17222 0.796366 1.56965 1.37273 1.52755 2.09921L1.5252 2.18053L1.5252 7.42949C1.5252 8.1665 2.10146 8.76919 2.82761 8.8113L2.90889 8.81365H5.21268C5.94714 8.81365 6.54781 8.23942 6.58978 7.51568L6.59212 7.43467V6.98995C6.59212 6.79461 6.75048 6.63625 6.94583 6.63625C7.12489 6.63625 7.27288 6.76931 7.2963 6.94196L7.29953 6.98995V7.43467C7.29953 8.55296 6.41914 9.46591 5.31377 9.51865L5.21268 9.52105H2.90889C1.7872 9.52105 0.871483 8.63721 0.820071 7.52793L0.817795 7.42949L0.817795 2.18053C0.817795 1.05855 1.70147 0.142657 2.81047 0.0912357L2.90889 0.0889587L5.20796 0.0889587ZM8.97848 3.14536L9.01822 3.17952L10.3991 4.55425C10.4115 4.56659 10.4224 4.57914 10.4324 4.59243L10.3991 4.55425C10.4135 4.56859 10.4264 4.58387 10.4378 4.59988C10.4459 4.61108 10.4533 4.62292 10.4601 4.6352C10.4613 4.63759 10.4625 4.63993 10.4637 4.64228C10.4697 4.65359 10.475 4.66532 10.4797 4.67737C10.4816 4.68264 10.4835 4.68798 10.4853 4.69335C10.4887 4.70327 10.4916 4.71347 10.494 4.72386C10.4952 4.72941 10.4963 4.73491 10.4973 4.74044C10.4993 4.75008 10.5007 4.76002 10.5017 4.77009C10.5022 4.7771 10.5027 4.78403 10.503 4.79098C10.5033 4.79563 10.5034 4.80028 10.5034 4.80496L10.503 4.81832C10.5027 4.82557 10.5022 4.83283 10.5015 4.84006L10.5034 4.80496C10.5034 4.82705 10.5014 4.84867 10.4975 4.86964C10.4963 4.87488 10.4952 4.8804 10.4939 4.88591C10.4915 4.89684 10.4885 4.90743 10.485 4.91781C10.4832 4.92263 10.4814 4.92751 10.4796 4.93236C10.4752 4.9441 10.4701 4.95546 10.4644 4.96648C10.463 4.96897 10.4615 4.97176 10.46 4.97454C10.4438 5.0044 10.4234 5.0314 10.3998 5.05507L10.3991 5.05553L9.01827 6.43073C8.87985 6.56858 8.6559 6.56812 8.51805 6.4297C8.39274 6.30387 8.38173 6.10735 8.48475 5.96909L8.51908 5.92949L9.29206 5.15824L4.47108 5.15866C4.27574 5.15866 4.11738 5.0003 4.11738 4.80496C4.11738 4.62589 4.25044 4.47791 4.42309 4.45448L4.47108 4.45126L9.293 4.45083L8.51912 3.68085C8.39327 3.55555 8.38142 3.35908 8.48385 3.22038L8.51801 3.18063C8.6433 3.05478 8.83978 3.04293 8.97848 3.14536Z" fill="#EA7C69"/>
</svg>
