<svg width="11" height="11" viewBox="0 0 11 11" fill="none" xmlns="http://www.w3.org/2000/svg">
<path d="M4.81499 3.06232C4.85634 3.1445 4.88121 3.23367 4.88835 3.32662L5.07158 5.91502C5.07404 5.95048 5.09084 5.98353 5.11827 6.00684C5.13885 6.02433 5.16413 6.03525 5.19239 6.03843L5.22158 6.03899L7.85038 5.88062C8.06386 5.86807 8.27315 5.94236 8.42871 6.08591C8.58428 6.22946 8.67228 6.4295 8.67114 6.66093C8.55423 8.3646 7.30283 9.78885 5.59845 10.158C3.89407 10.5272 2.14493 9.75288 1.30627 8.2614C1.08202 7.87691 0.93086 7.45634 0.861071 7.03053L0.838731 6.87067C0.819336 6.75096 0.808908 6.63007 0.807404 6.51396L0.808872 6.39967C0.813722 4.62091 2.06261 3.0828 3.82006 2.66794L3.94066 2.6414L4.00554 2.63067C4.34538 2.58421 4.67974 2.76235 4.81499 3.06232ZM4.11638 3.30639L4.07665 3.31091L3.9689 3.33525C2.56897 3.67266 1.5649 4.87786 1.50913 6.29773L1.5067 6.41331C1.50335 6.50124 1.50656 6.58925 1.51716 6.68291L1.53026 6.77865C1.57712 7.18152 1.7072 7.57087 1.91527 7.92769C2.6072 9.15816 4.04577 9.79499 5.44752 9.49137C6.84928 9.18774 7.87848 8.01638 7.97383 6.63746C7.97383 6.61669 7.96513 6.59683 7.94968 6.58258C7.93939 6.57308 7.92672 6.56663 7.91329 6.56375L7.89278 6.56217L5.26833 6.72025C5.04684 6.73599 4.82807 6.66474 4.66043 6.52227C4.49279 6.3798 4.39011 6.17786 4.3752 5.9624L4.19212 3.3762C4.19179 3.37192 4.19063 3.36774 4.1826 3.35112C4.17065 3.3247 4.1447 3.30789 4.11638 3.30639ZM6.19454 0.817695C8.21558 0.874862 9.91072 2.3271 10.235 4.27918L10.2395 4.33381L10.2384 4.42901C10.2271 4.56938 10.1705 4.7029 10.0765 4.81017C9.95849 4.94488 9.79039 5.02798 9.60698 5.04124L6.47295 5.24559C6.07121 5.26829 5.726 4.96972 5.69988 4.57753L5.49037 1.50062L5.49275 1.43168L5.50316 1.354C5.53111 1.21627 5.60287 1.09044 5.70855 0.994725C5.84127 0.87453 6.0174 0.810884 6.19454 0.817695ZM6.18901 1.50056L6.39644 4.53257C6.39766 4.55098 6.41385 4.56499 6.4296 4.56411L9.54069 4.36061L9.52522 4.27572C9.21694 2.74144 7.8871 1.60215 6.29157 1.50542L6.18901 1.50056Z" fill="#EA7C69"/>
</svg>
