<svg width="10" height="10" viewBox="0 0 10 10" fill="none" xmlns="http://www.w3.org/2000/svg">
<path d="M4.814 0.12825C5.14837 0.128115 5.46857 0.260589 5.70164 0.495494C5.93471 0.730398 6.06081 1.04773 6.05066 1.34389L6.05466 1.41354C6.0628 1.48213 6.0856 1.54833 6.12256 1.60935C6.19457 1.72966 6.31247 1.81698 6.45027 1.85203C6.58806 1.88708 6.73443 1.867 6.87304 1.78754L6.9503 1.74845C7.53036 1.48127 8.22606 1.69359 8.54781 2.2407L8.83698 2.73233C8.8446 2.74529 8.85132 2.75868 8.85711 2.77242L8.88394 2.82508C9.14258 3.36591 8.95856 4.00921 8.4672 4.33604L8.34586 4.41074C8.28243 4.45407 8.22954 4.51067 8.18977 4.57868C8.11794 4.69947 8.09823 4.84333 8.13499 4.97841C8.17176 5.11348 8.26197 5.22862 8.3988 5.30613L8.47754 5.35556C8.71538 5.51856 8.88719 5.7588 8.96213 6.03415C9.04669 6.34482 9.00135 6.67569 8.83386 6.95729L8.52278 7.46501L8.47589 7.53663C8.11038 8.05157 7.40073 8.20891 6.85917 7.90263L6.79498 7.87023C6.72803 7.8409 6.65577 7.82478 6.59001 7.82297C6.44694 7.8223 6.30952 7.87768 6.20836 7.9768C6.10719 8.07592 6.05066 8.21054 6.05103 8.36709L6.0472 8.44803C5.99483 9.07474 5.45934 9.56034 4.81414 9.56034H4.23155C3.54825 9.56034 2.99434 9.01765 2.99503 8.36971L2.99102 8.30005C2.98289 8.23146 2.96009 8.16527 2.92126 8.10108C2.85083 7.98046 2.73413 7.8924 2.59712 7.85647C2.4601 7.82055 2.31411 7.83974 2.1728 7.91978L2.08884 7.96086C1.82332 8.07786 1.52381 8.09947 1.24317 8.02132C0.926543 7.93316 0.658827 7.725 0.5026 7.44868L0.20203 6.9402L0.162026 6.86486C-0.11169 6.2988 0.102862 5.61831 0.647394 5.30999L0.697055 5.27951C0.842526 5.18087 0.929752 5.01823 0.929752 4.8443C0.929752 4.65516 0.826764 4.4804 0.646608 4.37812L0.573511 4.33217C0.0479172 3.97407 -0.112671 3.2788 0.212926 2.72536L0.519131 2.23239C0.859679 1.65331 1.61437 1.45354 2.19482 1.77967L2.25766 1.81249C2.32171 1.8413 2.39129 1.85659 2.45829 1.85729C2.75371 1.85732 2.99438 1.6249 2.99886 1.32698L3.00287 1.23549C3.02706 0.95222 3.15252 0.686017 3.35762 0.484111C3.58901 0.256315 3.90352 0.12825 4.23155 0.12825L4.814 0.12825ZM4.81414 0.811011H4.23155C4.08892 0.811011 3.95217 0.866693 3.85156 0.965736C3.76239 1.05352 3.70784 1.16927 3.69827 1.27737L3.69193 1.42116C3.64314 2.04809 3.10848 2.54011 2.45464 2.54003C2.28609 2.53831 2.11993 2.5018 1.95049 2.42509L1.85977 2.37821C1.60128 2.23309 1.27168 2.32034 1.11873 2.58024L0.812518 3.07321C0.672209 3.31179 0.742382 3.61561 0.959637 3.76397L1.08259 3.84025C1.42121 4.06457 1.62663 4.44011 1.62663 4.8443C1.62663 5.24259 1.42695 5.61492 1.08176 5.84864L1.00828 5.8939C0.766421 6.03099 0.673084 6.32702 0.785496 6.56015L0.812043 6.61041L1.1088 7.11197C1.17848 7.23516 1.2954 7.32607 1.43369 7.36457C1.55625 7.3987 1.68706 7.38926 1.78912 7.34466L1.84039 7.32006C2.12343 7.15826 2.46071 7.11392 2.77727 7.19692C3.09382 7.27992 3.36343 7.48337 3.52334 7.75733C3.60937 7.89934 3.66381 8.05742 3.68488 8.23913L3.69439 8.40588C3.72372 8.67112 3.95302 8.87758 4.23155 8.87758H4.81414C5.09584 8.87758 5.32983 8.66539 5.35181 8.40545L5.35448 8.35401C5.35289 8.03162 5.48291 7.72198 5.71559 7.49402C5.94827 7.26605 6.26431 7.13867 6.60101 7.14034C6.76621 7.14467 6.9288 7.18094 7.095 7.25421L7.24401 7.32879C7.47789 7.42937 7.75532 7.35597 7.89593 7.15832L7.93011 7.10597L8.23401 6.6098C8.30584 6.48901 8.32555 6.34515 8.28879 6.21007C8.2562 6.09035 8.18149 5.98589 8.09091 5.9234L7.9625 5.84387C7.71697 5.68129 7.53851 5.43675 7.46164 5.15433C7.37709 4.84366 7.42243 4.51279 7.58634 4.23716C7.67607 4.08367 7.79939 3.95171 7.96017 3.84229L8.03597 3.79551C8.27745 3.65713 8.37071 3.36112 8.25911 3.12711L8.22577 3.06413L8.21979 3.05091L7.944 2.58158C7.81355 2.35977 7.54211 2.26393 7.31179 2.33965L7.25945 2.36019L7.2108 2.38448C6.92869 2.5473 6.59205 2.5935 6.27513 2.51288C5.95821 2.43226 5.68704 2.23144 5.52234 1.95627C5.43632 1.81426 5.38188 1.65617 5.36081 1.47447L5.35462 1.3556C5.35881 1.21258 5.30374 1.07399 5.20195 0.971399C5.10016 0.868808 4.96032 0.811011 4.81414 0.811011ZM4.52497 3.30301C5.3938 3.30301 6.09813 3.99307 6.09813 4.8443C6.09813 5.69553 5.3938 6.38559 4.52497 6.38559C3.65614 6.38559 2.95181 5.69553 2.95181 4.8443C2.95181 3.99307 3.65614 3.30301 4.52497 3.30301ZM4.52497 3.98577C4.04101 3.98577 3.64869 4.37015 3.64869 4.8443C3.64869 5.31845 4.04101 5.70283 4.52497 5.70283C5.00893 5.70283 5.40125 5.31845 5.40125 4.8443C5.40125 4.37015 5.00893 3.98577 4.52497 3.98577Z" fill="#EA7C69"/>
</svg>
