<svg width="11" height="9" viewBox="0 0 11 9" fill="none" xmlns="http://www.w3.org/2000/svg">
<path d="M7.56135 0.278386C8.27533 0.286427 8.95489 0.588672 9.44177 1.11475C9.92864 1.64083 10.1803 2.34482 10.1388 3.0415L10.1382 5.98289C10.1803 6.70084 9.92864 7.40483 9.44177 7.93091C8.95489 8.45698 8.27533 8.75923 7.55736 8.76727H3.28431C1.78955 8.76727 0.711151 7.55925 0.711151 6.00415L0.711151 3.0415C0.711151 1.48641 1.78955 0.278386 3.28431 0.278386L7.56135 0.278386ZM7.55337 0.999177L3.28431 0.999177C2.20274 0.999177 1.42678 1.86843 1.42678 3.0415L1.42678 6.00415C1.42678 7.17723 2.20274 8.04648 3.28431 8.04648H7.55337C8.07163 8.04066 8.56489 7.82127 8.9183 7.43941C9.2717 7.05755 9.45439 6.54655 9.42319 6.00415L9.42381 3.02024C9.45439 2.49911 9.2717 1.98811 8.9183 1.60625C8.56489 1.22439 8.07163 1.005 7.55337 0.999177ZM8.26816 2.93747C8.38043 3.07874 8.37 3.27902 8.25127 3.40772L8.21241 3.44406L6.27554 5.00557C5.80512 5.37489 5.15512 5.39336 4.66463 5.0593L4.58856 5.00362L2.63872 3.44499C2.48393 3.32126 2.45803 3.09455 2.58088 2.93864C2.69256 2.7969 2.88872 2.76246 3.03976 2.85033L3.08359 2.88038L5.03096 4.43705C5.2493 4.60847 5.54862 4.62165 5.77656 4.47888L5.83197 4.43994L7.76521 2.88131C7.91949 2.75693 8.14467 2.78207 8.26816 2.93747Z" fill="#EA7C69"/>
</svg>
